
<svg xmlns="http://www.w3.org/2000/svg" aria-hidden="true" style="position: absolute; width: 0; height: 0; overflow: hidden;">
    <defs>
   <symbol id="burger-menu-icon" viewBox="0 0 56 32">
<path stroke-linejoin="miter" stroke-linecap="round" stroke-miterlimit="10" stroke-width="4.5263" d="M2.895 2.421h49.789M2.895 16h49.789M2.895 29.579h49.789"></path>
</symbol>
<symbol id="icon_6_1" viewBox="0 0 25 32">
<path fill="#cf1d05" style="fill: var(--color1, #cf1d05)" d="M4.869 0.323h6.947c1.591 0 2.491 0.231 3.548 1.267l0.122 0.122 8.073 8.205c0.968 0.992 1.275 1.725 1.352 3.017l0.015 0.335 0.006 0.361 0.001 13.47c0 2.981-1.447 4.516-4.354 4.576l-0.18 0.002h-15.531c-2.953 0-4.472-1.461-4.532-4.396l-0.002-0.182v-22.185c0-2.981 1.461-4.529 4.355-4.59l0.179-0.002zM11.493 2.677h-6.493c-1.473 0-2.259 0.781-2.309 2.143l-0.002 0.139v22.097c0 1.415 0.74 2.214 2.153 2.264l0.144 0.003h15.297c1.472 0 2.245-0.754 2.294-2.128l0.003-0.139v-13.133h-8.336c-1.761 0-2.696-0.855-2.747-2.594l-0.002-0.156v-8.497zM12.637 22.615c3.271 0 5.311 2.248 5.311 3.877 0 0.532-0.324 0.815-1.22 0.839l-0.125 0.001h-7.932c-0.998 0-1.352-0.284-1.352-0.84 0-1.629 2.040-3.877 5.318-3.877zM12.637 15.978c1.352 0 2.526 1.156 2.526 2.716 0 1.579-1.168 2.792-2.526 2.792-1.352 0-2.526-1.213-2.526-2.779 0-1.547 1.174-2.729 2.526-2.729zM13.701 3.131v7.765c0 0.551 0.207 0.791 0.707 0.817l0.097 0.002h7.619l-8.423-8.585z"></path>
</symbol>
<symbol id="icon_6_2" viewBox="0 0 45 32">
<path fill="#cf1d05" style="fill: var(--color1, #cf1d05)" d="M45.373 14.545c0 0.376-0.149 0.737-0.415 1.003s-0.627 0.415-1.003 0.415h-42.537c-0.376 0-0.737-0.149-1.003-0.415s-0.415-0.627-0.415-1.003c0-0.376 0.149-0.737 0.415-1.003s0.627-0.415 1.003-0.415h4.949l8.419-11.593c0.255-0.35 0.587-0.637 0.97-0.839s0.808-0.313 1.241-0.326c0.433-0.012 0.863 0.075 1.258 0.255s0.742 0.448 1.017 0.783l2.313 2.682c0.132 0.166 0.3 0.3 0.491 0.392s0.4 0.14 0.612 0.14 0.421-0.048 0.612-0.14c0.191-0.092 0.359-0.226 0.491-0.392l0.035-0.041 2.278-2.641c0.275-0.335 0.622-0.603 1.017-0.783s0.824-0.267 1.258-0.255c0.433 0.012 0.858 0.124 1.241 0.326s0.715 0.489 0.971 0.839l8.419 11.593h4.949c0.376 0 0.737 0.149 1.003 0.415s0.415 0.627 0.415 1.003zM31.903 18.799c-1.569 0-3.083 0.579-4.253 1.625s-1.913 2.487-2.087 4.046h-5.753c-0.175-1.558-0.917-2.997-2.085-4.043s-2.681-1.625-4.248-1.626c-1.568-0.002-3.082 0.574-4.252 1.617s-1.916 2.481-2.094 4.038c-0.178 1.558 0.223 3.127 1.128 4.407s2.249 2.183 3.777 2.535c1.528 0.352 3.132 0.13 4.506-0.625s2.422-1.989 2.944-3.468h6.402c0.39 1.103 1.076 2.077 1.982 2.817s1.999 1.216 3.157 1.376 2.339-0 3.413-0.465c1.073-0.465 1.998-1.216 2.674-2.171s1.075-2.078 1.156-3.245c0.081-1.167-0.161-2.334-0.699-3.372s-1.351-1.91-2.35-2.518c-0.999-0.608-2.147-0.93-3.316-0.929z"></path>
</symbol>
<symbol id="icon_6_3" viewBox="0 0 32 32">
<path fill="#cf1d05" style="fill: var(--color1, #cf1d05)" d="M24.569 8.011c-0.693-1.704-1.878-3.163-3.405-4.19s-3.324-1.576-5.164-1.576-3.638 0.549-5.164 1.576c-1.526 1.027-2.712 2.486-3.405 4.19-1.542 0.684-2.852 1.8-3.771 3.214s-1.409 3.064-1.41 4.75c-0.013 4.639 3.891 8.65 8.524 8.775 1.564 0.037 3.109-0.345 4.476-1.105v5.355c0 0.199 0.079 0.39 0.22 0.53s0.331 0.22 0.53 0.22 0.39-0.079 0.53-0.22c0.141-0.141 0.22-0.331 0.22-0.53v-5.355c1.3 0.723 2.762 1.103 4.25 1.105h0.221c4.637-0.125 8.541-4.137 8.529-8.775-0-1.686-0.49-3.337-1.41-4.75s-2.23-2.53-3.771-3.214zM21.188 23.25c-1.59 0.042-3.15-0.441-4.438-1.375v-5.411l5.585-2.793c0.178-0.089 0.313-0.245 0.377-0.433s0.049-0.395-0.040-0.573c-0.089-0.178-0.245-0.313-0.433-0.377s-0.395-0.049-0.573 0.040l-4.915 2.457v-3.786c0-0.199-0.079-0.39-0.22-0.53s-0.331-0.22-0.53-0.22-0.39 0.079-0.53 0.22c-0.141 0.141-0.22 0.331-0.22 0.53v6.786l-4.915-2.457c-0.178-0.089-0.384-0.103-0.573-0.040s-0.345 0.198-0.433 0.377c-0.089 0.178-0.103 0.384-0.040 0.573s0.198 0.345 0.377 0.434l5.585 2.793v2.411c-1.289 0.932-2.848 1.415-4.438 1.375-3.839-0.096-7.072-3.425-7.063-7.268-0-1.445 0.433-2.856 1.244-4.052s1.961-2.121 3.303-2.657c0.097-0.039 0.185-0.099 0.258-0.174s0.129-0.166 0.165-0.264c0.545-1.493 1.536-2.782 2.838-3.693s2.853-1.399 4.442-1.399 3.14 0.489 4.442 1.399c1.302 0.911 2.293 2.2 2.838 3.693 0.036 0.099 0.092 0.189 0.165 0.264s0.161 0.135 0.259 0.174c1.341 0.535 2.491 1.46 3.302 2.655s1.244 2.606 1.244 4.050c0.010 3.844-3.224 7.171-7.063 7.271z"></path>
</symbol>
    </defs>
</svg>
